<svg xmlns="http://www.w3.org/2000/svg" viewBox="0 0 220.15002 275.70001">
  <defs>
    <style>
      .cls-1 {
        fill: #039;
      }
    </style>
  </defs>
  <g id="Layer_2" data-name="Layer 2">
    <g id="Layer_2-2" data-name="Layer 2">
      <g>
        <path d="M146.48,134.02q-.55481-5.19-1.49-10c-2.57-13.31-7.24-24.5-13.74-33.7a69.80387,69.80387,0,0,0-7.77-9.21C112.55005,70.23,98.18005,63.2,81.05005,59.71c-3.23-.67-6.57007-1.2-10-1.62a152.97122,152.97122,0,0,0-17.99-1.02H0v187.7H55.43005c54.96,0,91.89-30.15,91.89-94.67A147.138,147.138,0,0,0,146.48,134.02Zm-96,76.58H42.43005V91.23H50.48a75.481,75.481,0,0,1,20.57007,2.53,46.12063,46.12063,0,0,1,10,4.09c14.26,7.98,22.79,23.99,22.79,52.25,0,16.08-2.76,28.41-7.78,37.6a41.1356,41.1356,0,0,1-7.49,10C79.24,206.84,66.1001,210.6,50.48,210.6Z"/>
        <path d="M146.48,134.02q-.55481-5.19-1.49-10c-2.57-13.31-7.24-24.5-13.74-33.7a69.80387,69.80387,0,0,0-7.77-9.21C112.55005,70.23,98.18005,63.2,81.05005,59.71c-3.23-.67-6.57007-1.2-10-1.62a152.97122,152.97122,0,0,0-17.99-1.02H0v187.7H55.43005c54.96,0,91.89-30.15,91.89-94.67A147.138,147.138,0,0,0,146.48,134.02Zm-96,76.58H42.43005V91.23H50.48a75.481,75.481,0,0,1,20.57007,2.53,46.12063,46.12063,0,0,1,10,4.09c14.26,7.98,22.79,23.99,22.79,52.25,0,16.08-2.76,28.41-7.78,37.6a41.1356,41.1356,0,0,1-7.49,10C79.24,206.84,66.1001,210.6,50.48,210.6Z"/>
      </g>
      <g>
        <path d="M145.53,0h-64.48V49.49c16.7,3.12,30.8999,9.23,42.42993,18.3V33.69H143.03c22.96,0,35.53,7.05,35.53,26.69,0,19.54-11.05,29.94-34.38,29.94h-1.03a99.44349,99.44349,0,0,1,11.95008,33.39q4.875-.34506,9.55993-1.12a90.907,90.907,0,0,0,10-2.23c13.20008-3.75,24.58-10.44,32.65-20.36A53.4355,53.4355,0,0,0,213.75,90c4.1001-8.26,6.4-18.1,6.4-29.62C220.15,14.77,186.83008,0,145.53,0Zm-.54,124.02c-2.57-13.31-7.24-24.5-13.74-33.7a69.80387,69.80387,0,0,0-7.77-9.21C112.55005,70.23,98.18005,63.2,81.05005,59.71c-3.23-.67-6.57007-1.2-10-1.62V93.76a46.12063,46.12063,0,0,1,10,4.09c14.26,7.98,22.79,23.99,22.79,52.25,0,16.08-2.76,28.41-7.78,37.6a41.1356,41.1356,0,0,1-7.49,10H133.48V134.02h13Q145.92517,128.83,144.99,124.02Z"/>
        <path d="M145.53,0h-64.48V49.49c16.7,3.12,30.8999,9.23,42.42993,18.3V33.69H143.03c22.96,0,35.53,7.05,35.53,26.69,0,19.54-11.05,29.94-34.38,29.94h-1.03a99.44349,99.44349,0,0,1,11.95008,33.39q4.875-.34506,9.55993-1.12a90.907,90.907,0,0,0,10-2.23c13.20008-3.75,24.58-10.44,32.65-20.36A53.4355,53.4355,0,0,0,213.75,90c4.1001-8.26,6.4-18.1,6.4-29.62C220.15,14.77,186.83008,0,145.53,0ZM131.25,90.32h-7.77V81.11C112.55005,70.23,98.18005,63.2,81.05005,59.71V97.85c14.26,7.98,22.79,23.99,22.79,52.25,0,16.08-2.76,28.41-7.78,37.6H123.48V124.02h21.51C142.42,110.71,137.75,99.52,131.25,90.32Z"/>
      </g>
      <path class="cls-1" d="M194.19006,240.11V275.7H77.66V118.72A80.1617,80.1617,0,0,0,107.46,104.64,64.14063,64.14063,0,0,0,120.1001,91.66V240.11Z"/>
    </g>
  </g>
</svg>
